
<svg width="700" height="292" xmlns="http://www.w3.org/2000/svg">
<style>
    text {
        font-family: Arial, sans-serif;
        font-size: 14px;
        fill: #c9d1d9;
    }
</style>

    <text x="10" y="30">C</text>

    <rect x="140" y="16"
          width="156.7332917832244"
          height="18"
          rx="6"
          fill="#58a6ff"/>

    <text x="306.7332917832244" y="30">
        39.2%
    </text>
    
    <text x="10" y="58">C++</text>

    <rect x="140" y="44"
          width="142.63331062571564"
          height="18"
          rx="6"
          fill="#58a6ff"/>

    <text x="292.63331062571564" y="58">
        35.7%
    </text>
    
    <text x="10" y="86">Python</text>

    <rect x="140" y="72"
          width="56.028872494311024"
          height="18"
          rx="6"
          fill="#58a6ff"/>

    <text x="206.02887249431103" y="86">
        14.0%
    </text>
    
    <text x="10" y="114">MATLAB</text>

    <rect x="140" y="100"
          width="17.86702998854956"
          height="18"
          rx="6"
          fill="#58a6ff"/>

    <text x="167.86702998854958" y="114">
        4.5%
    </text>
    
    <text x="10" y="142">Java</text>

    <rect x="140" y="128"
          width="17.28001391445509"
          height="18"
          rx="6"
          fill="#58a6ff"/>

    <text x="167.28001391445508" y="142">
        4.3%
    </text>
    
    <text x="10" y="170">HTML</text>

    <rect x="140" y="156"
          width="6.535445624918471"
          height="18"
          rx="6"
          fill="#58a6ff"/>

    <text x="156.53544562491848" y="170">
        1.6%
    </text>
    
    <text x="10" y="198">CMake</text>

    <rect x="140" y="184"
          width="2.0581798153435855"
          height="18"
          rx="6"
          fill="#58a6ff"/>

    <text x="152.05817981534358" y="198">
        0.5%
    </text>
    
    <text x="10" y="226">M</text>

    <rect x="140" y="212"
          width="0.47685997130143637"
          height="18"
          rx="6"
          fill="#58a6ff"/>

    <text x="150.47685997130142" y="226">
        0.1%
    </text>
    
    <text x="10" y="254">PowerShell</text>

    <rect x="140" y="240"
          width="0.38699578218080094"
          height="18"
          rx="6"
          fill="#58a6ff"/>

    <text x="150.3869957821808" y="254">
        0.1%
    </text>
    </svg>