<svg viewBox="0 0 100 100" width="100%" preserveAspectRatio="xMinYMin meet" xmlns="http://www.w3.org/2000/svg">
<style>
text {
    font-family: Arial, sans-serif;
    font-size: 3;
    fill: #c9d1d9;
}
</style>
<text x="1" y="10.0">C</text><rect x="25" y="6.0" width="27.376147386237875" height="8.0" rx="1" fill="#58a6ff"/><text x="53.376147386237875" y="10.0">39.1%</text><text x="1" y="20.0">C++</text><rect x="25" y="16.0" width="24.913344761987428" height="8.0" rx="1" fill="#58a6ff"/><text x="50.91334476198743" y="20.0">35.6%</text><text x="1" y="30.0">Python</text><rect x="25" y="26.0" width="9.91956542181137" height="8.0" rx="1" fill="#58a6ff"/><text x="35.91956542181137" y="30.0">14.2%</text><text x="1" y="40.0">MATLAB</text><rect x="25" y="36.0" width="3.120782067139726" height="8.0" rx="1" fill="#58a6ff"/><text x="29.120782067139725" y="40.0">4.5%</text><text x="1" y="50.0">Java</text><rect x="25" y="46.0" width="3.018249679925352" height="8.0" rx="1" fill="#58a6ff"/><text x="29.01824967992535" y="50.0">4.3%</text><text x="1" y="60.0">HTML</text><rect x="25" y="56.0" width="1.1415272443200313" height="8.0" rx="1" fill="#58a6ff"/><text x="27.14152724432003" y="60.0">1.6%</text><text x="1" y="70.0">CMake</text><rect x="25" y="66.0" width="0.3594962712207683" height="8.0" rx="1" fill="#58a6ff"/><text x="26.359496271220767" y="70.0">0.5%</text><text x="1" y="80.0">M</text><rect x="25" y="76.0" width="0.08329174171241745" height="8.0" rx="1" fill="#58a6ff"/><text x="26.08329174171242" y="80.0">0.1%</text><text x="1" y="90.0">PowerShell</text><rect x="25" y="86.0" width="0.06759542564503179" height="8.0" rx="1" fill="#58a6ff"/><text x="26.06759542564503" y="90.0">0.1%</text></svg>