
<svg width="700" height="292" xmlns="http://www.w3.org/2000/svg">
<style>
    text {
        font-family: Arial, sans-serif;
        font-size: 14px;
        fill: #c9d1d9;
    }
</style>

    <text x="10" y="30">C</text>

    <rect x="140" y="16"
          width="400.0"
          height="18"
          rx="6"
          fill="#58a6ff"/>

    <text x="550.0" y="30">
        39.1%
    </text>
    
    <text x="10" y="58">C++</text>

    <rect x="140" y="44"
          width="364.0153511813936"
          height="18"
          rx="6"
          fill="#58a6ff"/>

    <text x="514.0153511813936" y="58">
        35.6%
    </text>
    
    <text x="10" y="86">Python</text>

    <rect x="140" y="72"
          width="144.2086281037592"
          height="18"
          rx="6"
          fill="#58a6ff"/>

    <text x="294.2086281037592" y="86">
        14.1%
    </text>
    
    <text x="10" y="114">MATLAB</text>

    <rect x="140" y="100"
          width="45.598557358856986"
          height="18"
          rx="6"
          fill="#58a6ff"/>

    <text x="195.598557358857" y="114">
        4.5%
    </text>
    
    <text x="10" y="142">Java</text>

    <rect x="140" y="128"
          width="44.100430018033016"
          height="18"
          rx="6"
          fill="#58a6ff"/>

    <text x="194.10043001803302" y="142">
        4.3%
    </text>
    
    <text x="10" y="170">HTML</text>

    <rect x="140" y="156"
          width="16.679151061173535"
          height="18"
          rx="6"
          fill="#58a6ff"/>

    <text x="166.67915106117354" y="170">
        1.6%
    </text>
    
    <text x="10" y="198">CMake</text>

    <rect x="140" y="184"
          width="5.252693392518611"
          height="18"
          rx="6"
          fill="#58a6ff"/>

    <text x="155.2526933925186" y="198">
        0.5%
    </text>
    
    <text x="10" y="226">M</text>

    <rect x="140" y="212"
          width="1.2169972719286077"
          height="18"
          rx="6"
          fill="#58a6ff"/>

    <text x="151.21699727192862" y="226">
        0.1%
    </text>
    
    <text x="10" y="254">PowerShell</text>

    <rect x="140" y="240"
          width="0.9876543209876543"
          height="18"
          rx="6"
          fill="#58a6ff"/>

    <text x="150.98765432098764" y="254">
        0.1%
    </text>
    </svg>