
<svg width="800" height="280" xmlns="http://www.w3.org/2000/svg">
<style>
    text {
        font-family: Arial, sans-serif;
        font-size: 20px;
        fill: #c9d1d9;
    }
</style>

    <text x="20" y="40">C</text>

    <rect x="150" y="20"
          width="500.0"
          height="20"
          rx="5"
          fill="#555555"/>

    <text x="670.0" y="40">
        35.5%
    </text>
    
    <text x="20" y="70">C++</text>

    <rect x="150" y="50"
          width="478.274928630161"
          height="20"
          rx="5"
          fill="#f34b7d"/>

    <text x="648.274928630161" y="70">
        34.0%
    </text>
    
    <text x="20" y="100">Python</text>

    <rect x="150" y="80"
          width="182.06930958342187"
          height="20"
          rx="5"
          fill="#3572A5"/>

    <text x="352.06930958342184" y="100">
        12.9%
    </text>
    
    <text x="20" y="130">Java</text>

    <rect x="150" y="110"
          width="160.3488576206358"
          height="20"
          rx="5"
          fill="#b07219"/>

    <text x="330.34885762063584" y="130">
        11.4%
    </text>
    
    <text x="20" y="160">MATLAB</text>

    <rect x="150" y="140"
          width="58.463215661637676"
          height="20"
          rx="5"
          fill="#e16737"/>

    <text x="228.46321566163766" y="160">
        4.2%
    </text>
    
    <text x="20" y="190">HTML</text>

    <rect x="150" y="170"
          width="20.828906401574294"
          height="20"
          rx="5"
          fill="#e34c26"/>

    <text x="190.8289064015743" y="190">
        1.5%
    </text>
    
    <text x="20" y="220">CMake</text>

    <rect x="150" y="200"
          width="6.979924056948049"
          height="20"
          rx="5"
          fill="#DA3434"/>

    <text x="176.97992405694805" y="220">
        0.5%
    </text>
    
    <text x="20" y="250">PowerShell</text>

    <rect x="150" y="230"
          width="1.2333816831271538"
          height="20"
          rx="5"
          fill="#012456"/>

    <text x="171.23338168312716" y="250">
        0.1%
    </text>
    </svg>